<?xml version="1.0" standalone="no"?>
<!DOCTYPE svg PUBLIC "-//W3C//DTD SVG 1.1//EN" "http://www.w3.org/Graphics/SVG/1.1/DTD/svg11.dtd">
<svg xmlns="http://www.w3.org/2000/svg">
<metadata>Generated by Fontastic.me</metadata>
<defs>
<font id="botbloq" horiz-adv-x="512">
<font-face font-family="botbloq" units-per-em="512" ascent="480" descent="-32"/>
<missing-glyph horiz-adv-x="512" />

<glyph glyph-name="verificarmini" unicode="&#97;" d="M500 422c0 0-15 15-15 15-16 16-43 16-59 0 0 0-251-246-251-246 0 0-89 87-89 87-17 16-43 16-59 0 0 0-15-14-15-14-16-16-16-42 0-58 0 0 133-130 133-130 16-16 43-16 59 0 0 0 296 289 296 289 16 15 16 41 0 57z"/>
<glyph glyph-name="versionanterior" unicode="&#98;" d="M95 93c-1 2-2 3-2 5 0 2 1 4 3 5 0 0 46 43 46 43 2 3 7 3 10 0 41-42 103-58 160-43 88 22 140 110 117 194-24 85-114 135-201 113-33-9-63-27-84-53 0 0 60-33 60-33 2-2 3-4 3-7 0-2-2-4-4-6 0 0-172-71-172-71-2-1-4-1-6 0-2 1-3 3-3 5 0 0-22 180-22 180 0 3 1 5 3 7 2 1 5 1 8 0 0 0 64-37 64-37 33 43 80 74 133 88 129 33 262-41 296-166 34-125-42-254-171-288-86-22-176 3-238 64z"/>
<glyph glyph-name="warning" unicode="&#99;" d="M40 20c0 0 432 0 432 0 30 0 49 32 36 60 0 0-216 390-216 390-15 30-57 30-72 0 0 0-216-390-216-390-13-28 6-60 36-60z m250 90c0-20-15-35-35-35-21 0-35 15-35 35 0 0 0 1 0 1 0 20 14 36 35 36 20 0 35-16 35-36 0 0 0-1 0-1z m-54 264c0 0 40 0 40 0 11 0 18-10 17-22 0 0-18-159-18-159-1-11-9-18-19-18-10 0-18 7-19 18 0 0-18 159-18 159-1 12 6 22 17 22z"/>
<glyph glyph-name="web2board" unicode="&#100;" d="M403 222l-85 0c-24 0-76 27-1 54 0 0 7 3 17 10-9 1-17 6-25 13l-145 145c-16 17-20 40-4 56l1 1c16 16 43 16 60 0l145-146c6-6 10-14 11-22 6 11 10 19 10 19 41 74 59 22 59-2l0-85c0-24-19-43-43-43z m-213-22c0 0-5 2-12 2 0 0 0 0 0 0l145-145c17-17 17-44 0-61l0 0c-17-17-40-13-56 4l-138 138c-36-77-66-26-66-3l0 86c0 23 19 42 43 42l85 0c24 0 81-25-1-63z"/>
<glyph glyph-name="guardar" unicode="&#101;" d="M506 398c0 0-111 109-111 109-3 3-8 5-13 5 0 0-363 0-363 0-11 0-19-8-19-19 0 0 0-474 0-474 0-11 8-19 19-19 0 0 474 0 474 0 11 0 19 8 19 19 0 0 0 364 0 364 0 6-2 11-6 15z m-271 75c0 0 41 0 41 0 0 0 0-118 0-118 0 0-41 0-41 0 0 0 0 118 0 118z m237-434c0 0-432 0-432 0 0 0 0 434 0 434 0 0 78 0 78 0 0 0 0-157 0-157 0 0 236 0 236 0 0 0 0 157 0 157 0 0 12 0 12 0 0 0 106-109 106-109 0 0 0-325 0-325z"/>
<glyph glyph-name="icon-close" unicode="&#103;" d="M224 63c-125 0-226 101-226 225 0 125 101 226 226 226 124 0 225-101 225-226 0-124-101-225-225-225z m88 274c25 25 33 26 8 51-25 25-26 17-51-8l-46-47-47 47c-25 25-26 33-51 8-25-25-17-26 8-51l47-47-49-48c-25-25-33-26-8-51 25-25 26-17 51 8l49 49 48-49c25-25 26-33 51-8 25 25 17 26-8 51l-49 48z"/>
<glyph glyph-name="info" unicode="&#104;" d="M256 512c-141 0-256-115-256-256 0-141 115-256 256-256 141 0 256 115 256 256 0 141-115 256-256 256z m53-397c-13-5-23-9-31-11-8-3-17-5-28-5-16 0-28 4-37 12-9 8-13 18-13 30 0 4 0 9 1 14 1 5 2 10 3 16 0 0 17 59 17 59 1 5 2 11 3 15 1 5 2 10 2 14 0 8-2 13-5 16-3 3-9 4-17 4-5 0-9-1-13-2-5-1-9-3-12-4 0 0 4 18 4 18 11 5 22 8 31 11 10 4 20 5 28 5 16 0 28-4 37-11 8-8 13-18 13-30 0-3 0-7-1-13-1-7-2-13-3-18 0 0-17-58-17-58-1-5-2-10-3-16-1-6-2-10-2-14 0-7 2-12 5-15 4-3 10-4 18-4 4 0 9 0 14 2 5 1 8 2 11 3 0 0-5-18-5-18z m-3 236c-7-7-17-11-27-11-11 0-20 4-28 11-8 7-12 16-12 26 0 10 4 18 12 26 8 7 17 10 28 10 10 0 20-3 27-10 8-8 12-16 12-26 0-10-4-19-12-26z"/>
<glyph glyph-name="loading" unicode="&#105;" d="M256 512c-141 0-256-115-256-256 0-141 115-256 256-256 141 0 256 115 256 256 0 141-115 256-256 256m0-64c106 0 192-86 192-192 0-106-86-192-192-192-106 0-192 86-192 192 0 106 86 192 192 192m0 64c141 0 256-115 256-256l-64 0c0 106-86 192-192 192z"/>
<glyph glyph-name="nuevoproyecto" unicode="&#106;" d="M61-1c0 0 350 0 350 0 12 0 22 9 22 21 0 0 0 358 0 358 0 6 5 11 0 15 0 0-118 118-118 118-4 3-27 0-33 0 0 0-221 0-221 0-12 0-22-10-22-21 0 0 0-470 0-470 0-12 10-21 22-21z m329 356c0 0 4-2 4-2 0 0-118 1-118 1 0 0 0 117 0 117 0 0 114-116 114-116z m-311 116c0 0 157 0 157 0 0 0 0-137 0-137 0-11 10-21 22-21 0 0 135 0 135 0 0 0 0-275 0-275 0 0-314 0-314 0 0 0 0 433 0 433z"/>
<glyph glyph-name="ok" unicode="&#107;" d="M437 75c-48-48-113-75-181-75-68 0-132 27-181 75-48 48-75 113-75 181 0 68 27 132 75 181 49 48 113 75 181 75 68 0 133-27 181-75 48-49 75-113 75-181 0-68-27-133-75-181z m-48 286c-15 12-34 0-48-18 0 0-112-154-112-154 0 0-61 77-61 77-12 16-26 23-42 11-15-12-18-35-6-50 0 0 81-103 81-103 1-1 2-1 3-2 1-2 2-3 3-5 2-1 3-1 4-1 1-1 2-1 3-2 3-1 6-2 9-3 3 0 7 0 10 0 1 0 1 0 2 0 6 1 11 3 16 7 1 1 2 2 2 3 3 2 6 4 8 7 0 0 130 178 130 178 14 18 14 43-2 55z"/>
<glyph glyph-name="rehacer" unicode="&#109;" d="M11 100c4 0 8 2 10 6 1 3 33 71 151 85 25 3 55 4 91 4 0 0 0-85 0-85 0-4 2-7 5-9 4-2 8-1 12 1 0 0 227 146 227 146 3 2 5 6 5 9 0 4-2 7-5 9 0 0-227 147-227 147-4 2-8 2-12 0-3-2-6-5-6-9 0 0 0-79 0-79-49-6-262-43-262-215 0-5 4-9 9-10 1 0 1 0 2 0z"/>
<glyph glyph-name="robots" unicode="&#110;" d="M441 169c0 0-14 0-14 0 0 5 0 10 0 14 0 0 0 95 0 95 0 0 14 0 14 0 16 0 29-13 29-29 0 0 0-51 0-51 0-16-13-29-29-29z m-121-57c0 9-8 16-17 16 0 0-115 0-115 0-10 0-17-7-17-16 0 0 0-26 0-26 0 0-86 0-86 0 0 0 0 79 0 79 0 0 0 99 0 99 0 5 0 9 1 14 6 70 69 127 140 136 0 0 0 11 0 11 0 0 0 11 0 11 0 0 0 6 0 6-11 6-19 18-19 32 0 21 17 38 38 38 21 0 39-17 39-38 0-14-8-26-20-32 0 0 0-6 0-6 0 0 0-11 0-11 0 0 0-11 0-11 71-9 133-65 140-136 0-5 0-9 0-14 0 0 0-99 0-99 0 0 0-79 0-79 0 0-84 0-84 0 0 0 0 26 0 26z m-148 158c-23 0-42-18-42-41 0-22 19-41 42-41 23 0 41 19 41 41 0 23-18 41-41 41z m195-41c0 23-19 41-42 41-23 0-41-18-41-41 0-22 18-41 41-41 23 0 42 19 42 41z m-303-60c0 0-13 0-13 0-17 0-30 13-30 29 0 0 0 51 0 51 0 16 13 29 30 29 0 0 14 0 14 0-1-4-1-9-1-14 0 0 0-95 0-95z m-8-105c0 0 3 0 3 0 0 0 118 0 118 0 0 0 137 0 137 0 0 0 117 0 117 0 0 0 2 0 2 0 8 0 14-6 14-14 0 0 0-36 0-36 0-8-6-14-14-14 0 0-377 0-377 0-7 0-14 6-14 14 0 0 0 36 0 36 0 8 7 14 14 14z"/>
<glyph glyph-name="software" unicode="&#111;" d="M491 64c0 0-470 0-470 0-11 0-21 10-21 21 0 0 0 22 0 22 0 11 10 21 21 21 0 0 470 0 470 0 11 0 21-10 21-21 0 0 0-22 0-22 0-11-10-21-21-21z m-64 213c0 0-406 0-406 0-11 0-21 10-21 22 0 0 0 21 0 21 0 12 10 21 21 21 0 0 406 0 406 0 11 0 21-9 21-21 0 0 0-21 0-21 0-12-10-22-21-22z m-107 107c0 0-299 0-299 0-11 0-21 10-21 21 0 0 0 22 0 22 0 11 10 21 21 21 0 0 299 0 299 0 12 0 21-10 21-21 0 0 0-22 0-22 0-11-9-21-21-21z m-299-149c0 0 342 0 342 0 11 0 21-10 21-22 0 0 0-21 0-21 0-12-10-21-21-21 0 0-342 0-342 0-11 0-21 9-21 21 0 0 0 21 0 21 0 12 10 22 21 22z"/>
<glyph glyph-name="ver-verserialmonitor" unicode="&#112;" d="M512 119c0 0 0 354 0 354 0 0-512 0-512 0 0 0 0-354 0-354 0 0 236 0 236 0 0 0 0-39 0-39 0 0-78 0-78 0 0 0 0-39 0-39 0 0 195 0 195 0 0 0 0 39 0 39 0 0-77 0-77 0 0 0 0 39 0 39 0 0 236 0 236 0z m-473 78c0 0 0 235 0 235 0 0 434 0 434 0 0 0 0-235 0-235 0 0-434 0-434 0z"/>
<glyph glyph-name="verificar" unicode="&#113;" d="M500 422c0 0-15 15-15 15-16 16-43 16-59 0 0 0-251-246-251-246 0 0-89 87-89 87-17 16-43 16-59 0 0 0-15-14-15-14-16-16-16-42 0-58 0 0 133-130 133-130 16-16 43-16 59 0 0 0 296 289 296 289 16 15 16 41 0 57z"/>
<glyph glyph-name="exportcode" unicode="&#114;" d="M411 0c0 0-310 0-310 0-23 0-42 18-42 41 0 0 0 430 0 430 0 23 19 41 42 41 0 0 217 0 217 0 0 0 47 0 47 0 0 0 88-109 88-109 0 0 0-44 0-44 0 0 0-318 0-318 0-23-19-41-42-41z m-115 389c0 0 0 83 0 83 0 0-177 0-177 0-12 0-21-10-21-21 0 0 0-390 0-390 0-13 11-21 21-21 0 0 275 0 275 0 13 0 21 10 21 21 0 0 0 293 0 293 0 0-83 0-83 0-23 0-36 13-36 35z m36 105c0 0 0-80 0-80 0-10 11-20 21-20 0 0 66 0 66 0 0 0-87 100-87 100z m-38-362c0 0 48 47 48 47 0 0-48 47-48 47 0 0 22 15 22 15 0 0 62-62 62-62 0 0-62-61-62-61 0 0-22 14-22 14z m-72-34c0 0 42 163 42 163 0 0 29 0 29 0 0 0-41-163-41-163 0 0-30 0-30 0z m-32 20c0 0-63 61-63 61 0 0 63 62 63 62 0 0 29-15 29-15 0 0-48-47-48-47 0 0 48-47 48-47 0 0-29-14-29-14z"/>
<glyph glyph-name="error" unicode="&#115;" d="M40 20c0 0 432 0 432 0 30 0 49 32 36 60 0 0-216 390-216 390-15 30-57 30-72 0 0 0-216-390-216-390-13-28 6-60 36-60z m250 90c0-20-15-35-35-35-21 0-35 15-35 35 0 0 0 1 0 1 0 20 14 36 35 36 20 0 35-16 35-36 0 0 0-1 0-1z m-54 264c0 0 40 0 40 0 11 0 18-10 17-22 0 0-18-159-18-159-1-11-9-18-19-18-10 0-18 7-19 18 0 0-18 159-18 159-1 12 6 22 17 22z"/>
<glyph glyph-name="edit" unicode="&#116;" d="M318 426c0 0 104-105 104-105 0 0-263-265-263-265 0 0-104 105-104 105 0 0 263 265 263 265z m183 26c0 0-46 46-46 46-18 18-47 18-65 0 0 0-45-44-45-44 0 0 105-105 105-105 0 0 51 52 51 52 14 14 14 37 0 51z m-501-439c-2-8 6-16 15-14 0 0 116 28 116 28 0 0-104 105-104 105 0 0-27-119-27-119z"/>
<glyph glyph-name="duplicar" unicode="&#117;" d="M341 512c0 0-163 0-163 0-11 0-21-10-21-21 0 0 0-97 0-97 0 0-96 0-96 0-12 0-22-9-22-21 0 0 0-352 0-352 0-12 10-21 22-21 0 0 272 0 272 0 12 0 21 9 21 21 0 0 0 57 0 57 0 0 97 0 97 0 12 0 21 10 21 21 0 0 0 255 0 255 0 6 3 12 0 33 0 0-116 119-116 119-4 4-10 6-15 6z m-27-472c0 0-234 0-234 0 0 0 0 315 0 315 0 0 77 0 77 0 0 0 0-256 0-256 0-11 10-21 21-21 0 0 136 0 136 0 0 0 0-38 0-38z m-118 79c0 0 0 354 0 354 0 0 119 0 119 0 0 0 0-137 0-137 0-12 8-21 20-21 0 0 98 0 98 0 0 0 0-196 0-196 0 0-237 0-237 0z m235 238c0 0-75 0-75 0 0 0 0 87 0 87 0 0 75-87 75-87z"/>
<glyph glyph-name="dropdown" unicode="&#118;" d="M376 334c0 0-279 0-279 0-19 0-25 25-15 35 0 0 137 137 137 137 9 10 25 10 34 0 0 0 137-137 137-137 10-10 4-35-14-35z m-280-156c0 0 279 0 279 0 19 0 25-25 15-35 0 0-137-137-137-137-9-10-25-10-34 0 0 0-137 137-137 137-10 10-4 35 14 35z"/>
<glyph glyph-name="deshacer" unicode="&#119;" d="M501 100c-4 0-8 2-10 6-1 3-33 71-151 85-25 3-55 4-90 4 0 0 0-85 0-85 0-4-3-7-6-9-4-2-8-1-12 1 0 0-227 146-227 146-3 2-5 6-5 9 0 4 2 7 5 9 0 0 227 147 227 147 4 2 8 2 12 0 3-2 6-5 6-9 0 0 0-79 0-79 49-6 262-43 262-215 0-5-4-9-9-10-1 0-1 0-2 0z"/>
<glyph glyph-name="copiartexto" unicode="&#120;" d="M432 86c0 0-50 0-50 0 0 0 0-47 0-47 0-22-16-40-37-40 0 0-266 0-266 0-20 0-37 18-37 40 0 0 0 347 0 347 0 22 17 40 37 40 0 0 49 0 49 0 0 0 0 47 0 47 0 21 16 39 37 39 0 0 267 0 267 0 20 0 37-18 37-39 0 0 0-348 0-348 0-22-17-39-37-39z m-342 298c-3 0-5-3-5-6 0 0 0-330 0-330 0-3 2-6 5-6 0 0 246 0 246 0 3 0 5 3 5 6 0 0 0 330 0 330 0 3-2 6-5 6 0 0-246 0-246 0z m336 79c0 3-2 6-5 6 0 0-245 0-245 0-3 0-6-3-6-6 0 0 0-37 0-37 0 0 175 0 175 0 21 0 37-18 37-40 0 0 0-257 0-257 0 0 39 0 39 0 3 0 5 2 5 5 0 0 0 329 0 329z m-149-335c0 0-128 0-128 0-11 0-21 10-21 21 0 12 10 22 21 22 0 0 128 0 128 0 12 0 22-10 22-22 0-11-10-21-22-21z m0 85c0 0-128 0-128 0-11 0-21 10-21 22 0 11 10 21 21 21 0 0 128 0 128 0 12 0 22-10 22-21 0-12-10-22-22-22z m0 86c0 0-128 0-128 0-11 0-21 9-21 21 0 12 10 21 21 21 0 0 128 0 128 0 12 0 22-9 22-21 0-12-10-21-22-21z"/>
<glyph glyph-name="codigo" unicode="&#122;" d="M509 249c0 0-131-127-131-127-2-2-5-3-8-3-2 0-5 1-7 3 0 0-29 27-29 27-4 4-4 11 0 15 0 0 95 92 95 92 0 0-95 92-95 92-4 4-4 11 0 15 0 0 29 27 29 27 4 4 11 4 15 0 0 0 131-127 131-127 4-4 4-10 0-14z m-295-182c-1 0-2 0-3 0 0 0-23 7-23 7-3 1-5 2-6 5-2 2-2 5-1 8 0 0 106 351 106 351 2 5 8 8 14 7 0 0 23-7 23-7 3-1 5-2 6-5 2-2 2-5 1-8 0 0-107-351-107-351-1-4-5-7-10-7z m-131 189c0 0 94-92 94-92 5-4 5-11 0-15 0 0-28-27-28-27-2-2-5-3-8-3-2 0-5 1-7 3 0 0-131 127-131 127-4 4-4 10 0 14 0 0 131 127 131 127 2 2 5 3 7 3 3 0 6-1 8-3 0 0 28-27 28-27 2-2 4-5 4-8 0-2-2-5-4-7 0 0-94-92-94-92z"/>
<glyph glyph-name="cierre" unicode="&#65;" d="M480 434c0 0-163-162-163-162 0 0 161-161 161-161 0 0-77-77-77-77 0 0-161 161-161 161 0 0-162-163-162-163 0 0-78 78-78 78 0 0 163 162 163 162 0 0-161 161-161 161 0 0 77 77 77 77 0 0 161-161 161-161 0 0 162 163 162 163 0 0 78-78 78-78z"/>
<glyph glyph-name="cargar" unicode="&#66;" d="M0 267c0-28 23-50 51-50 0 0 288 0 288 0 0 0-78-77-78-77-21-21-22-53-2-73 19-19 53-18 74 3 0 0 162 160 162 160 21 21 23 53 3 73-1 0-1 1-2 1-1 1-1 2-2 2 0 0-160 158-160 158-21 21-54 22-74 2-20-19-19-52 2-72 0 0 78-77 78-77 0 0-289 0-289 0-28 0-51-23-51-50z"/>
<glyph glyph-name="cambiaridioma" unicode="&#67;" d="M437 437c48-48 75-112 75-181 0-68-27-133-75-181-49-48-113-75-181-75-68 0-133 27-181 75-48 48-75 113-75 181 0 69 27 133 75 181 48 49 113 76 181 76 68 0 132-27 181-76z m-23-339c32 31 53 71 61 113-6-10-13-13-17 9-4 36-37 13-58 26-22-15-71 29-63-21 13-22 70 30 41-17-18-33-66-105-60-143 1-55-56-12-75 7-13 36-5 100-39 118-37 1-69 5-84 47-9 30 9 74 41 81 47 30 64-34 108-36 14 15 51 19 54 35-29 5 36 25-3 36-22-3-36-23-24-40-42-10-43 61-84 39-1-36-66-12-22-5 15 7-25 26-4 22 11 1 46 13 37 22 19 12 36-29 55 1 14 23-6 27-23 15-10 11 17 35 41 45 8 4 15 5 21 5 12-14 34-16 35 2-29 14-62 21-96 21-49 0-95-15-134-44 11-5 17-10 7-18-8-23-39-54-67-50-14-24-24-51-28-80 23-8 29-23 24-28-12-10-19-24-23-40 8-46 29-89 63-122 42-43 98-66 158-66 60 0 116 23 158 66z"/>
<glyph glyph-name="abrirproyecto" unicode="&#68;" d="M506 324c-6 7-16 12-28 12 0 0-45 0-45 0 0 0 0 40 0 40 0 18-15 38-34 38 0 0-159 0-159 0-6 0-17-1-21 4 0 0-12 15-12 15-9 11-28 20-43 20 0 0-55 0-55 0-17 0-35-6-40-21 0 0-4-10-4-10-2-5-9-9-14-9 0 0-17 0-17 0-19 0-34-19-34-37 0 0 0-285 0-285 0-1 0-3 1-4 0-6 2-11 6-15 6-8 16-13 28-13 0 0 349 0 349 0 21 0 43 14 50 33 0 0 76 198 76 198 4 10 2 26-4 34z m-462 51c0 0 17 0 17 0 17 0 24 6 30 21 0 0 4 10 4 10 2 5 9 9 14 9 0 0 55 0 55 0 6 0 17-5 21-10 0 0 12-15 12-15 9-11 28-15 43-15 0 0 146 0 146 0 4 0 7-3 7-6 0 0 0-33 0-33 0 0-255 0-255 0-21 0-43-19-50-38 0 0-50-97-50-97 0 0 0 168 0 168 0 3 3 6 6 6z m426-85c0 0-72-190-72-190-3-8-14-2-24-2 0 0-329 0-329 0-3 0-5 1-6 2-1 1-1 3 0 5 0 0 76 176 76 176 3 8 14 16 23 16 0 0 326 0 326 0 3 0 5-1 6-2 1-1 1-3 0-5z"/>
<glyph glyph-name="graduation-cap" unicode="&#108;" d="M85 199c0 0 171-86 171-86 0 0 141 69 141 69-1-7-2-15-4-24-1-8-2-14-3-18-1-3-2-7-5-11-4-5-8-9-13-12-5-4-13-7-23-12-13-6-27-13-41-21-13-7-24-13-32-17-8-4-15-6-20-6-5 0-12 3-20 7-9 5-20 11-33 19-14 8-28 15-41 21-25 10-42 22-53 35-11 12-19 31-24 56m415 126c8-5 12-11 12-17 0-7-4-12-12-17 0 0-40-23-40-23 0 0-158 53-158 53-7 12-23 18-46 18-14 0-25-3-34-8-10-6-14-13-14-21 0-8 4-15 14-20 9-6 20-8 34-8 9 0 15 0 18 2 0 0 150-35 150-35 0 0-137-78-137-78-21-11-41-11-62 0 0 0-213 120-213 120-8 5-12 10-12 17 0 6 4 12 12 17 0 0 213 119 213 119 21 11 41 11 62 0 0 0 213-119 213-119m-66-227c6 40 9 71 7 93-2 23-5 38-10 47 0 0-7 11-7 11 0 0 36 19 36 19 2-2 4-7 6-14 2-7 5-24 9-52 3-27 2-61-4-101-1-9-5-14-11-15-6-1-12 0-18 3-6 3-9 6-8 9"/>
<glyph glyph-name="search" unicode="&#121;" d="M450 117c10-12 11-22 3-32 0 0-24-24-24-24-12-10-24-10-35 0 0 0-97 98-97 98-25-15-52-22-80-22-44 0-82 16-114 49-33 32-49 70-49 114 0 44 16 81 46 112 31 31 68 47 112 47 44 0 82-16 115-49 32-32 49-70 49-114 0-30-8-58-24-83 0 0 98-96 98-96m-348 183c0-30 12-57 35-80 23-23 50-35 80-35 30 0 56 11 77 33 22 21 33 47 33 78 0 30-12 56-35 79-23 23-50 35-80 35-30 0-56-11-77-33-22-21-33-47-33-77"/>
<glyph glyph-name="cloud" unicode="&#69;" d="M389 330c34 0 63-12 87-35 24-23 36-52 36-85 0-34-12-62-36-85-24-23-53-35-87-35 0 0-296 0-296 0-25 0-47 9-65 27-19 17-28 39-28 63 0 25 9 47 27 65 18 17 40 26 66 26 1 0 3 0 5 0 3 0 5-1 5-1 0 4-1 11-1 20 0 37 14 68 40 94 27 26 59 39 97 39 30 0 58-9 82-27 23-17 39-40 48-68 9 1 16 2 20 2"/>
<glyph glyph-name="book-open" unicode="&#70;" d="M200 199c0 0 0-35 0-35 0 0-103 41-103 41 0 0 0 35 0 35 0 0 103-41 103-41m0 106c0 0 0-35 0-35 0 0-103 41-103 41 0 0 0 35 0 35 0 0 103-41 103-41m275 177c8-4 11-11 11-21 0 0 0-328 0-328 0-11-5-19-16-23 0 0-204-82-204-82-2-1-4-1-5-1-1 0-1-1-2-1-1 0-2 0-3 0-1 0-2 0-3 0-1 0-1 1-2 1 0 0-5 1-5 1 0 0-204 82-204 82-11 4-16 12-16 23 0 0 0 328 0 328 0 10 3 17 11 21 7 6 15 7 23 3 0 0 196-78 196-78 0 0 196 78 196 78 8 4 16 3 23-3m-245-403c0 0 0 287 0 287 0 0-163 65-163 65 0 0 0-287 0-287 0 0 163-65 163-65m215 65c0 0 0 287 0 287 0 0-163-65-163-65 0 0 0-287 0-287 0 0 163 65 163 65m-30 96c0 0 0-35 0-35 0 0-103-41-103-41 0 0 0 35 0 35 0 0 103 41 103 41m0 106c0 0 0-35 0-35 0 0-103-41-103-41 0 0 0 35 0 35 0 0 103 41 103 41"/>
<glyph glyph-name="comment" unicode="&#102;" d="M410 435c14 0 26-5 36-15 10-10 15-22 15-36 0 0 0-179 0-179 0-14-5-26-15-36-10-10-22-15-36-15 0 0-103 0-103 0 0 0 0-77 0-77 0 0-102 77-102 77 0 0-103 0-103 0-13 0-25 5-35 15-11 10-16 22-16 36 0 0 0 179 0 179 0 14 5 26 16 36 10 10 22 15 35 15 0 0 308 0 308 0"/>
<glyph glyph-name="user" unicode="&#71;" d="M256 192c0 0-171 0-235-149 0 0 107-43 235-43 128 0 235 43 235 43-64 149-235 149-235 149z m0 21c64 0 107 64 107 171 0 107-107 107-107 107 0 0-107 0-107-107 0-107 43-171 107-171z"/>
</font>
</defs>
</svg>
